<svg viewBox="0 0 330 200" xmlns="http://www.w3.org/2000/svg"><g><g><g><g><g><line x1="41.171875" y1="177" x2="36.171875" y2="177" style="visibility: inherit;" fill="rgb(0, 0, 0)" stroke="rgb(204, 204, 204)" stroke-width="1px"></line><line x1="41.171875" y1="157.33333333333331" x2="36.171875" y2="157.33333333333331" style="visibility: inherit;" fill="rgb(0, 0, 0)" stroke="rgb(204, 204, 204)" stroke-width="1px"></line><line x1="41.171875" y1="137.66666666666666" x2="36.171875" y2="137.66666666666666" style="visibility: inherit;" fill="rgb(0, 0, 0)" stroke="rgb(204, 204, 204)" stroke-width="1px"></line><line x1="41.171875" y1="118" x2="36.171875" y2="118" style="visibility: inherit;" fill="rgb(0, 0, 0)" stroke="rgb(204, 204, 204)" stroke-width="1px"></line><line x1="41.171875" y1="98.33333333333334" x2="36.171875" y2="98.33333333333334" style="visibility: inherit;" fill="rgb(0, 0, 0)" stroke="rgb(204, 204, 204)" stroke-width="1px"></line><line x1="41.171875" y1="78.66666666666666" x2="36.171875" y2="78.66666666666666" style="visibility: inherit;" fill="rgb(0, 0, 0)" stroke="rgb(204, 204, 204)" stroke-width="1px"></line><line x1="41.171875" y1="59.00000000000001" x2="36.171875" y2="59.00000000000001" style="visibility: inherit;" fill="rgb(0, 0, 0)" stroke="rgb(204, 204, 204)" stroke-width="1px"></line><line x1="41.171875" y1="39.33333333333333" x2="36.171875" y2="39.33333333333333" style="visibility: inherit;" fill="rgb(0, 0, 0)" stroke="rgb(204, 204, 204)" stroke-width="1px"></line><line x1="41.171875" y1="19.666666666666657" x2="36.171875" y2="19.666666666666657" style="visibility: inherit;" fill="rgb(0, 0, 0)" stroke="rgb(204, 204, 204)" stroke-width="1px"></line><line x1="41.171875" y1="0" x2="36.171875" y2="0" style="visibility: inherit;" fill="rgb(0, 0, 0)" stroke="rgb(204, 204, 204)" stroke-width="1px"></line></g><g transform="translate(31.171875, 0)"><text x="0" y="177" dx="0em" dy="0.3em" style="text-anchor: end; visibility: hidden; font-family: Roboto, sans-serif; font-size: 12px; font-weight: 200;" fill="rgb(33, 33, 33)" stroke="none" stroke-width="1px">0.2</text><text x="0" y="157.33333333333331" dx="0em" dy="0.3em" style="text-anchor: end; visibility: inherit; font-family: Roboto, sans-serif; font-size: 12px; font-weight: 200;" fill="rgb(33, 33, 33)" stroke="none" stroke-width="1px">0.4</text><text x="0" y="137.66666666666666" dx="0em" dy="0.3em" style="text-anchor: end; visibility: hidden; font-family: Roboto, sans-serif; font-size: 12px; font-weight: 200;" fill="rgb(33, 33, 33)" stroke="none" stroke-width="1px">0.6</text><text x="0" y="118" dx="0em" dy="0.3em" style="text-anchor: end; visibility: inherit; font-family: Roboto, sans-serif; font-size: 12px; font-weight: 200;" fill="rgb(33, 33, 33)" stroke="none" stroke-width="1px">0.8</text><text x="0" y="98.33333333333334" dx="0em" dy="0.3em" style="text-anchor: end; visibility: hidden; font-family: Roboto, sans-serif; font-size: 12px; font-weight: 200;" fill="rgb(33, 33, 33)" stroke="none" stroke-width="1px">1</text><text x="0" y="78.66666666666666" dx="0em" dy="0.3em" style="text-anchor: end; visibility: inherit; font-family: Roboto, sans-serif; font-size: 12px; font-weight: 200;" fill="rgb(33, 33, 33)" stroke="none" stroke-width="1px">1.2</text><text x="0" y="59.00000000000001" dx="0em" dy="0.3em" style="text-anchor: end; visibility: hidden; font-family: Roboto, sans-serif; font-size: 12px; font-weight: 200;" fill="rgb(33, 33, 33)" stroke="none" stroke-width="1px">1.4</text><text x="0" y="39.33333333333333" dx="0em" dy="0.3em" style="text-anchor: end; visibility: inherit; font-family: Roboto, sans-serif; font-size: 12px; font-weight: 200;" fill="rgb(33, 33, 33)" stroke="none" stroke-width="1px">1.6</text><text x="0" y="19.666666666666657" dx="0em" dy="0.3em" style="text-anchor: end; visibility: hidden; font-family: Roboto, sans-serif; font-size: 12px; font-weight: 200;" fill="rgb(33, 33, 33)" stroke="none" stroke-width="1px">1.8</text><text x="0" y="0" dx="0em" dy="0.3em" style="text-anchor: end; visibility: hidden; font-family: Roboto, sans-serif; font-size: 12px; font-weight: 200;" fill="rgb(33, 33, 33)" stroke="none" stroke-width="1px">2</text></g><line x1="41.171875" y1="0" x2="41.171875" y2="177" fill="rgb(0, 0, 0)" stroke="rgb(204, 204, 204)" stroke-width="1px"></line></g></g><g transform="translate(41, 0)" clip-path="url(#clip_0)"><clipPath id="clip_0"><rect width="288" height="177"></rect></clipPath><g><g><g><line x1="0" y1="0" x2="0" y2="177" fill="rgb(0, 0, 0)" stroke="rgb(66, 66, 66)" stroke-width="1px" opacity="0.25"></line><line x1="24.069010416666664" y1="0" x2="24.069010416666664" y2="177" fill="rgb(0, 0, 0)" stroke="rgb(66, 66, 66)" stroke-width="1px" opacity="0.25"></line><line x1="48.13802083333333" y1="0" x2="48.13802083333333" y2="177" fill="rgb(0, 0, 0)" stroke="rgb(66, 66, 66)" stroke-width="1px" opacity="0.25"></line><line x1="72.20703125" y1="0" x2="72.20703125" y2="177" fill="rgb(0, 0, 0)" stroke="rgb(66, 66, 66)" stroke-width="1px" opacity="0.25"></line><line x1="96.27604166666666" y1="0" x2="96.27604166666666" y2="177" fill="rgb(0, 0, 0)" stroke="rgb(66, 66, 66)" stroke-width="1px" opacity="0.25"></line><line x1="120.34505208333334" y1="0" x2="120.34505208333334" y2="177" fill="rgb(0, 0, 0)" stroke="rgb(66, 66, 66)" stroke-width="1px" opacity="0.25"></line><line x1="144.4140625" y1="0" x2="144.4140625" y2="177" fill="rgb(0, 0, 0)" stroke="rgb(66, 66, 66)" stroke-width="1px" opacity="0.25"></line><line x1="168.48307291666669" y1="0" x2="168.48307291666669" y2="177" fill="rgb(0, 0, 0)" stroke="rgb(66, 66, 66)" stroke-width="1px" opacity="0.25"></line><line x1="192.55208333333331" y1="0" x2="192.55208333333331" y2="177" fill="rgb(0, 0, 0)" stroke="rgb(66, 66, 66)" stroke-width="1px" opacity="0.25"></line><line x1="216.62109375" y1="0" x2="216.62109375" y2="177" fill="rgb(0, 0, 0)" stroke="rgb(66, 66, 66)" stroke-width="1px" opacity="0.25"></line><line x1="240.69010416666669" y1="0" x2="240.69010416666669" y2="177" fill="rgb(0, 0, 0)" stroke="rgb(66, 66, 66)" stroke-width="1px" opacity="0.25"></line><line x1="264.7591145833333" y1="0" x2="264.7591145833333" y2="177" fill="rgb(0, 0, 0)" stroke="rgb(66, 66, 66)" stroke-width="1px" opacity="0.25"></line><line x1="288.828125" y1="0" x2="288.828125" y2="177" fill="rgb(0, 0, 0)" stroke="rgb(66, 66, 66)" stroke-width="1px" opacity="0.25"></line></g><g><line x1="0" y1="177" x2="288.828125" y2="177" fill="rgb(0, 0, 0)" stroke="rgb(66, 66, 66)" stroke-width="1px" opacity="0.25"></line><line x1="0" y1="157.33333333333331" x2="288.828125" y2="157.33333333333331" fill="rgb(0, 0, 0)" stroke="rgb(66, 66, 66)" stroke-width="1px" opacity="0.25"></line><line x1="0" y1="137.66666666666666" x2="288.828125" y2="137.66666666666666" fill="rgb(0, 0, 0)" stroke="rgb(66, 66, 66)" stroke-width="1px" opacity="0.25"></line><line x1="0" y1="118" x2="288.828125" y2="118" fill="rgb(0, 0, 0)" stroke="rgb(66, 66, 66)" stroke-width="1px" opacity="0.25"></line><line x1="0" y1="98.33333333333334" x2="288.828125" y2="98.33333333333334" fill="rgb(0, 0, 0)" stroke="rgb(66, 66, 66)" stroke-width="1px" opacity="0.25"></line><line x1="0" y1="78.66666666666666" x2="288.828125" y2="78.66666666666666" fill="rgb(0, 0, 0)" stroke="rgb(66, 66, 66)" stroke-width="1px" opacity="0.25"></line><line x1="0" y1="59.00000000000001" x2="288.828125" y2="59.00000000000001" fill="rgb(0, 0, 0)" stroke="rgb(66, 66, 66)" stroke-width="1px" opacity="0.25"></line><line x1="0" y1="39.33333333333333" x2="288.828125" y2="39.33333333333333" fill="rgb(0, 0, 0)" stroke="rgb(66, 66, 66)" stroke-width="1px" opacity="0.25"></line><line x1="0" y1="19.666666666666657" x2="288.828125" y2="19.666666666666657" fill="rgb(0, 0, 0)" stroke="rgb(66, 66, 66)" stroke-width="1px" opacity="0.25"></line><line x1="0" y1="0" x2="288.828125" y2="0" fill="rgb(0, 0, 0)" stroke="rgb(66, 66, 66)" stroke-width="1px" opacity="0.25"></line></g></g></g><g><g><line x1="0" y1="196.66666666666669" x2="288.828125" y2="196.66666666666669" fill="rgb(0, 0, 0)" stroke="rgb(153, 153, 153)" stroke-width="1.5px"></line></g></g><g><g><line x1="24.069010416666664" y1="0" x2="24.069010416666664" y2="177" fill="rgb(0, 0, 0)" stroke="rgb(153, 153, 153)" stroke-width="1.5px"></line></g></g><g><g><g><g><g><path stroke="rgb(204, 51, 17)" stroke-width="2px" d="M26.475911458333332,75.35948793093362L28.8828125,115.92227160930634L31.289713541666668,127.06875095764796L33.696614583333336,133.15931975841522L36.103515625,137.26993660132092L38.510416666666664,140.24606853723526L40.917317708333336,142.6069407661756L43.32421875,144.38752075036368L45.731119791666664,145.741299589475L48.13802083333333,147.12955941756567L50.544921875,148.2767395178477L52.951822916666664,149.1607200105985L55.358723958333336,149.88328809539476L57.765625,150.84026888012886L60.17252604166667,151.38888175288835L62.579427083333336,151.93909471233687L64.986328125,152.5567955772082L67.39322916666667,152.7604315181573L69.80013020833333,153.58917678395906L72.20703125,154.0739356478055L74.61393229166667,154.51439027984938L77.02083333333333,154.88727202018103L79.427734375,155.04621689518294L81.83463541666667,155.73604181408882L84.24153645833334,155.7019916176796L86.6484375,156.02694695194563L89.05533854166667,156.54586151242256L91.46223958333333,156.95915276805562L93.869140625,156.99148565530777L96.27604166666666,157.2740269700686L98.68294270833333,157.53901422023773L101.08984375,157.86293799678484L103.49674479166667,157.95716141661006L105.90364583333333,158.31733624140423L108.310546875,158.4078583618005L110.71744791666667,158.60245938102403L113.12434895833333,158.7065646549066L115.53125,159.08943374951681L117.93815104166667,159.1875665386518L120.34505208333334,159.0083421766758L122.751953125,158.92714803417525L125.15885416666667,159.57291488846144L127.56575520833333,159.19274484117827L129.97265625,159.57965224981308L132.37955729166666,159.52641859650612L134.78645833333334,159.6923411389192L137.193359375,160.02215534448624L139.60026041666666,159.92474933465323L142.00716145833331,160.22050748268765L144.4140625,160.3552488485972L146.82096354166666,160.52494595448175L149.22786458333334,160.25235975782076L151.634765625,160.7504995663961L154.04166666666666,160.71062048276266L156.44856770833331,160.6064917643865L158.85546875,160.87077274918556L161.26236979166666,161.03857964277267L163.66927083333334,161.19847401976585L166.076171875,161.26632824540138L168.48307291666669,161.01640408237773L170.88997395833334,159.96514419714612L173.296875,161.23593245943388L175.70377604166666,161.67521779735884L178.11067708333334,161.35477845867476L180.517578125,161.88242316246033L182.92447916666666,161.7803839345773L185.33138020833334,161.94324110945067L187.73828125,160.86312691370645L190.14518229166666,160.8921453356743L192.55208333333331,162.0258360604445L194.958984375,161.06275970737138L197.36588541666666,161.9425319135189L199.77278645833334,162.16770455241203L202.1796875,161.91462710499763L204.58658854166669,162.17116847634315L206.99348958333334,162.25649178028107L209.400390625,162.27578659852344L211.80729166666666,161.8880029519399L214.21419270833334,162.02890142798424L216.62109375,162.32485006252924L219.02799479166666,162.58072326580682L221.43489583333334,161.16697927316028L223.841796875,162.15734208623567L226.24869791666666,162.9079468548298L228.65559895833331,162.1696650981903L231.0625,163.0342833697796L233.46940104166666,163.08470075329146L235.87630208333334,162.63070106506348L238.283203125,163.11251178383827L240.69010416666669,163.14951012531918L243.09700520833334,163.25704122583073L245.50390625,163.0622497200966L247.91080729166666,163.35232257843018L250.31770833333334,163.1157236794631L252.724609375,162.6295317709446L255.13151041666666,163.21792994936305L257.53841145833337,163.28249315420788L259.9453125,163.18327312668163L262.3522135416667,163.40499063332877L264.7591145833333,163.50964392224947" style="fill: none;" fill="none"></path></g><g><path stroke="rgb(0, 119, 187)" stroke-width="2px" d="M26.475911458333332,23.680720329284675L28.8828125,100.57038346926372L31.289713541666668,121.90679510434468L33.696614583333336,130.16639570395154L36.103515625,135.26049733161926L38.510416666666664,138.9216128985087L40.917317708333336,141.6743422547976L43.32421875,143.8454313079516L45.731119791666664,145.61178634564084L48.13802083333333,147.01345642407736L50.544921875,148.15032680829367L52.951822916666664,149.14554556210834L55.358723958333336,149.98298873504004L57.765625,150.7870821158091L60.17252604166667,151.46541337172192L62.579427083333336,152.0767959455649L64.986328125,152.65638192494708L67.39322916666667,153.20845872163773L69.80013020833333,153.73821342984834L72.20703125,154.17635291814804L74.61393229166667,154.6105713148912L77.02083333333333,155.07312824328739L79.427734375,155.4763002693653L81.83463541666667,155.86401944359145L84.24153645833334,156.25308667620024L86.6484375,156.55937726298967L89.05533854166667,156.89708054065704L91.46223958333333,157.20728049675623L93.869140625,157.49802152315777L96.27604166666666,157.76761268575987L98.68294270833333,158.068625330925L101.08984375,158.32886214057606L103.49674479166667,158.59045580029488L105.90364583333333,158.82303103804588L108.310546875,159.12159959475198L110.71744791666667,159.2743111650149L113.12434895833333,159.46698680520058L115.53125,159.73735456665358L117.93815104166667,159.92121800780296L120.34505208333334,160.1275178293387L122.751953125,160.28525531291962L125.15885416666667,160.48893521229425L127.56575520833333,160.67907591660818L129.97265625,160.86789200703302L132.37955729166666,160.96422543128332L134.78645833333334,161.1794312298298L137.193359375,161.2967650592327L139.60026041666666,161.42702266573906L142.00716145833331,161.57913640141487L144.4140625,161.73647532860437L146.82096354166666,161.8153777718544L149.22786458333334,161.98946485916773L151.634765625,162.02031195163727L154.04166666666666,162.1346419552962L156.44856770833331,162.28408008813858L158.85546875,162.37490698695183L161.26236979166666,162.42609217762947L163.66927083333334,162.59890740116435L166.076171875,162.72265916069347L168.48307291666669,162.7228643000126L170.88997395833334,162.88527016838393L173.296875,162.97046159704527L175.70377604166666,163.081603149573L178.11067708333334,163.1296350558599L180.517578125,163.22410757342973L182.92447916666666,163.33108186721802L185.33138020833334,163.36411515871683L187.73828125,163.46388320128122L190.14518229166666,163.55371663967767L192.55208333333331,163.64049350221953L194.958984375,163.68783672650656L197.36588541666666,163.73466124137244L199.77278645833334,163.795162687699L202.1796875,163.9148966471354L204.58658854166669,163.97870669762293L206.99348958333334,164.03815607229868L209.400390625,164.13266375660896L211.80729166666666,164.19016430775326L214.21419270833334,164.2661098142465L216.62109375,164.28837329149246L219.02799479166666,164.36263958613077L221.43489583333334,164.38388322790465L223.841796875,164.4922436773777L226.24869791666666,164.50792218248048L228.65559895833331,164.6055216093858L231.0625,164.69145740071932L233.46940104166666,164.69160978992778L235.87630208333334,164.78229016065598L238.283203125,164.80574051539102L240.69010416666669,164.8405233522256L243.09700520833334,164.90233182907104L245.50390625,164.98116100827852L247.91080729166666,164.96158485611278L250.31770833333334,165.01728311181068L252.724609375,165.105252712965L255.13151041666666,165.17034048835438L257.53841145833337,165.1963433623314L259.9453125,165.22168392936388L262.3522135416667,165.29043783744177L264.7591145833333,165.33668796221417" style="fill: none;" fill="none"></path></g><g><path stroke="rgb(255, 112, 67)" stroke-width="2px" d="M26.475911458333332,74.27877883116405L28.8828125,114.78902339935301L31.289713541666668,126.09433333079019L33.696614583333336,131.99133853117627L36.103515625,135.80199480056763L38.510416666666664,139.14187977711362L40.917317708333336,141.45046492417652L43.32421875,142.83584107955295L45.731119791666664,144.54631616671878L48.13802083333333,145.96568097670874L50.544921875,146.6270735859871L52.951822916666664,147.4545880158742L55.358723958333336,148.08517456054688L57.765625,148.94779711961746L60.17252604166667,149.1923612852891L62.579427083333336,149.79591339826584L64.986328125,150.47567183772722L67.39322916666667,150.52162304520607L69.80013020833333,151.33917942643166L72.20703125,151.6670125722885L74.61393229166667,152.16296911239624L77.02083333333333,152.38385433952013L79.427734375,152.38651822010675L81.83463541666667,153.17553386092186L84.24153645833334,153.08084155122438L86.6484375,153.43222762147587L89.05533854166667,153.7863391141097L91.46223958333333,154.1853233675162L93.869140625,154.41396579146385L96.27604166666666,154.5959507425626L98.68294270833333,154.9350841343403L101.08984375,155.27074481050172L103.49674479166667,155.06522158781686L105.90364583333333,155.48868189255396L108.310546875,155.7343743244807L110.71744791666667,155.94808553655943L113.12434895833333,156.07781564195952L115.53125,156.24225238958996L117.93815104166667,156.447567542394L120.34505208333334,156.505493024985L122.751953125,156.33868838349977L125.15885416666667,156.97368249297142L127.56575520833333,156.6537970304489L129.97265625,156.90090199311575L132.37955729166666,156.98923791448274L134.78645833333334,157.06303238868713L137.193359375,157.28271315495172L139.60026041666666,157.1862830221653L142.00716145833331,157.84345855315524L144.4140625,157.9053344329198L146.82096354166666,158.03434948126474L149.22786458333334,157.89107431968054L151.634765625,158.49112441142398L154.04166666666666,158.42104882001877L156.44856770833331,158.0600387851397L158.85546875,158.37486023704213L161.26236979166666,158.65291193127632L163.66927083333334,158.66335059205693L166.076171875,158.73179386059445L168.48307291666669,158.34382558862367L170.88997395833334,157.3066470523675L173.296875,158.40112393101057L175.70377604166666,159.0393240749836L178.11067708333334,158.9256505171458L180.517578125,159.28349261482558L182.92447916666666,159.44807589054108L185.33138020833334,159.39145743846893L187.73828125,158.41653868556023L190.14518229166666,158.01600709557533L192.55208333333331,159.28276876608533L194.958984375,158.4243193268776L197.36588541666666,159.48521489898363L199.77278645833334,159.58906521399814L202.1796875,159.13656304279962L204.58658854166669,159.43135117491087L206.99348958333334,159.49772839744884L209.400390625,159.5364352564017L211.80729166666666,159.2205646634102L214.21419270833334,159.3094603220622L216.62109375,159.28289184967676L219.02799479166666,159.8591721554597L221.43489583333334,158.3588007589181L223.841796875,159.3033178647359L226.24869791666666,160.1164168616136L228.65559895833331,159.41444183389345L231.0625,160.0869002441565L233.46940104166666,160.19773994882902L235.87630208333334,159.7784908612569L238.283203125,160.40464346607527L240.69010416666669,160.3816356261571L243.09700520833334,160.22621914744377L245.50390625,160.3091423213482L247.91080729166666,160.3329208989938L250.31770833333334,160.16636535525322L252.724609375,159.8647285004457L255.13151041666666,160.53292001287144L257.53841145833337,160.0864753127098L259.9453125,160.26225040356317L262.3522135416667,160.50901835163435L264.7591145833333,160.42392949263254" style="fill: none;" fill="none"></path></g></g></g></g></g></g><g transform="translate(41, 177)" clip-path="url(#clip_1)"><clipPath id="clip_1"><rect width="288" height="23"></rect></clipPath><g><g><line x1="0" y1="0" x2="0" y2="5" style="visibility: inherit;" fill="rgb(0, 0, 0)" stroke="rgb(204, 204, 204)" stroke-width="1px"></line><line x1="24.069010416666664" y1="0" x2="24.069010416666664" y2="5" style="visibility: inherit;" fill="rgb(0, 0, 0)" stroke="rgb(204, 204, 204)" stroke-width="1px"></line><line x1="48.13802083333333" y1="0" x2="48.13802083333333" y2="5" style="visibility: inherit;" fill="rgb(0, 0, 0)" stroke="rgb(204, 204, 204)" stroke-width="1px"></line><line x1="72.20703125" y1="0" x2="72.20703125" y2="5" style="visibility: inherit;" fill="rgb(0, 0, 0)" stroke="rgb(204, 204, 204)" stroke-width="1px"></line><line x1="96.27604166666666" y1="0" x2="96.27604166666666" y2="5" style="visibility: inherit;" fill="rgb(0, 0, 0)" stroke="rgb(204, 204, 204)" stroke-width="1px"></line><line x1="120.34505208333334" y1="0" x2="120.34505208333334" y2="5" style="visibility: inherit;" fill="rgb(0, 0, 0)" stroke="rgb(204, 204, 204)" stroke-width="1px"></line><line x1="144.4140625" y1="0" x2="144.4140625" y2="5" style="visibility: inherit;" fill="rgb(0, 0, 0)" stroke="rgb(204, 204, 204)" stroke-width="1px"></line><line x1="168.48307291666669" y1="0" x2="168.48307291666669" y2="5" style="visibility: inherit;" fill="rgb(0, 0, 0)" stroke="rgb(204, 204, 204)" stroke-width="1px"></line><line x1="192.55208333333331" y1="0" x2="192.55208333333331" y2="5" style="visibility: inherit;" fill="rgb(0, 0, 0)" stroke="rgb(204, 204, 204)" stroke-width="1px"></line><line x1="216.62109375" y1="0" x2="216.62109375" y2="5" style="visibility: inherit;" fill="rgb(0, 0, 0)" stroke="rgb(204, 204, 204)" stroke-width="1px"></line><line x1="240.69010416666669" y1="0" x2="240.69010416666669" y2="5" style="visibility: inherit;" fill="rgb(0, 0, 0)" stroke="rgb(204, 204, 204)" stroke-width="1px"></line><line x1="264.7591145833333" y1="0" x2="264.7591145833333" y2="5" style="visibility: inherit;" fill="rgb(0, 0, 0)" stroke="rgb(204, 204, 204)" stroke-width="1px"></line><line x1="288.828125" y1="0" x2="288.828125" y2="5" style="visibility: inherit;" fill="rgb(0, 0, 0)" stroke="rgb(204, 204, 204)" stroke-width="1px"></line></g><g transform="translate(0, 8)"><text x="0" y="0" dx="0em" dy="0.95em" style="text-anchor: middle; visibility: hidden; font-family: Roboto, sans-serif; font-size: 12px; font-weight: 200;" fill="rgb(33, 33, 33)" stroke="none" stroke-width="1px">-10</text><text x="24.069010416666664" y="0" dx="0em" dy="0.95em" style="text-anchor: middle; visibility: inherit; font-family: Roboto, sans-serif; font-size: 12px; font-weight: 200;" fill="rgb(33, 33, 33)" stroke="none" stroke-width="1px">0</text><text x="48.13802083333333" y="0" dx="0em" dy="0.95em" style="text-anchor: middle; visibility: inherit; font-family: Roboto, sans-serif; font-size: 12px; font-weight: 200;" fill="rgb(33, 33, 33)" stroke="none" stroke-width="1px">10</text><text x="72.20703125" y="0" dx="0em" dy="0.95em" style="text-anchor: middle; visibility: inherit; font-family: Roboto, sans-serif; font-size: 12px; font-weight: 200;" fill="rgb(33, 33, 33)" stroke="none" stroke-width="1px">20</text><text x="96.27604166666666" y="0" dx="0em" dy="0.95em" style="text-anchor: middle; visibility: inherit; font-family: Roboto, sans-serif; font-size: 12px; font-weight: 200;" fill="rgb(33, 33, 33)" stroke="none" stroke-width="1px">30</text><text x="120.34505208333334" y="0" dx="0em" dy="0.95em" style="text-anchor: middle; visibility: inherit; font-family: Roboto, sans-serif; font-size: 12px; font-weight: 200;" fill="rgb(33, 33, 33)" stroke="none" stroke-width="1px">40</text><text x="144.4140625" y="0" dx="0em" dy="0.95em" style="text-anchor: middle; visibility: inherit; font-family: Roboto, sans-serif; font-size: 12px; font-weight: 200;" fill="rgb(33, 33, 33)" stroke="none" stroke-width="1px">50</text><text x="168.48307291666669" y="0" dx="0em" dy="0.95em" style="text-anchor: middle; visibility: inherit; font-family: Roboto, sans-serif; font-size: 12px; font-weight: 200;" fill="rgb(33, 33, 33)" stroke="none" stroke-width="1px">60</text><text x="192.55208333333331" y="0" dx="0em" dy="0.95em" style="text-anchor: middle; visibility: inherit; font-family: Roboto, sans-serif; font-size: 12px; font-weight: 200;" fill="rgb(33, 33, 33)" stroke="none" stroke-width="1px">70</text><text x="216.62109375" y="0" dx="0em" dy="0.95em" style="text-anchor: middle; visibility: inherit; font-family: Roboto, sans-serif; font-size: 12px; font-weight: 200;" fill="rgb(33, 33, 33)" stroke="none" stroke-width="1px">80</text><text x="240.69010416666669" y="0" dx="0em" dy="0.95em" style="text-anchor: middle; visibility: inherit; font-family: Roboto, sans-serif; font-size: 12px; font-weight: 200;" fill="rgb(33, 33, 33)" stroke="none" stroke-width="1px">90</text><text x="264.7591145833333" y="0" dx="0em" dy="0.95em" style="text-anchor: middle; visibility: inherit; font-family: Roboto, sans-serif; font-size: 12px; font-weight: 200;" fill="rgb(33, 33, 33)" stroke="none" stroke-width="1px">100</text><text x="288.828125" y="0" dx="0em" dy="0.95em" style="text-anchor: middle; visibility: hidden; font-family: Roboto, sans-serif; font-size: 12px; font-weight: 200;" fill="rgb(33, 33, 33)" stroke="none" stroke-width="1px">110</text></g><line x1="0" y1="0" x2="288.828125" y2="0" fill="rgb(0, 0, 0)" stroke="rgb(204, 204, 204)" stroke-width="1px"></line></g></g></g></g></svg>