<svg viewBox="0 0 330 200" xmlns="http://www.w3.org/2000/svg"><g><g><g><g><g><line x1="40" y1="177" x2="35" y2="177" style="visibility: inherit;" fill="rgb(0, 0, 0)" stroke="rgb(204, 204, 204)" stroke-width="1px"></line><line x1="40" y1="160.9090909090909" x2="35" y2="160.9090909090909" style="visibility: inherit;" fill="rgb(0, 0, 0)" stroke="rgb(204, 204, 204)" stroke-width="1px"></line><line x1="40" y1="144.8181818181818" x2="35" y2="144.8181818181818" style="visibility: inherit;" fill="rgb(0, 0, 0)" stroke="rgb(204, 204, 204)" stroke-width="1px"></line><line x1="40" y1="128.72727272727272" x2="35" y2="128.72727272727272" style="visibility: inherit;" fill="rgb(0, 0, 0)" stroke="rgb(204, 204, 204)" stroke-width="1px"></line><line x1="40" y1="112.63636363636361" x2="35" y2="112.63636363636361" style="visibility: inherit;" fill="rgb(0, 0, 0)" stroke="rgb(204, 204, 204)" stroke-width="1px"></line><line x1="40" y1="96.54545454545453" x2="35" y2="96.54545454545453" style="visibility: inherit;" fill="rgb(0, 0, 0)" stroke="rgb(204, 204, 204)" stroke-width="1px"></line><line x1="40" y1="80.45454545454544" x2="35" y2="80.45454545454544" style="visibility: inherit;" fill="rgb(0, 0, 0)" stroke="rgb(204, 204, 204)" stroke-width="1px"></line><line x1="40" y1="64.36363636363635" x2="35" y2="64.36363636363635" style="visibility: inherit;" fill="rgb(0, 0, 0)" stroke="rgb(204, 204, 204)" stroke-width="1px"></line><line x1="40" y1="48.27272727272725" x2="35" y2="48.27272727272725" style="visibility: inherit;" fill="rgb(0, 0, 0)" stroke="rgb(204, 204, 204)" stroke-width="1px"></line><line x1="40" y1="32.18181818181815" x2="35" y2="32.18181818181815" style="visibility: inherit;" fill="rgb(0, 0, 0)" stroke="rgb(204, 204, 204)" stroke-width="1px"></line><line x1="40" y1="16.090909090909076" x2="35" y2="16.090909090909076" style="visibility: inherit;" fill="rgb(0, 0, 0)" stroke="rgb(204, 204, 204)" stroke-width="1px"></line><line x1="40" y1="0" x2="35" y2="0" style="visibility: inherit;" fill="rgb(0, 0, 0)" stroke="rgb(204, 204, 204)" stroke-width="1px"></line></g><g transform="translate(30, 0)"><text x="0" y="177" dx="0em" dy="0.3em" style="text-anchor: end; visibility: hidden; font-family: Roboto, sans-serif; font-size: 12px; font-weight: 200;" fill="rgb(33, 33, 33)" stroke="none" stroke-width="1px">0.2</text><text x="0" y="160.9090909090909" dx="0em" dy="0.3em" style="text-anchor: end; visibility: inherit; font-family: Roboto, sans-serif; font-size: 12px; font-weight: 200;" fill="rgb(33, 33, 33)" stroke="none" stroke-width="1px">0.4</text><text x="0" y="144.8181818181818" dx="0em" dy="0.3em" style="text-anchor: end; visibility: hidden; font-family: Roboto, sans-serif; font-size: 12px; font-weight: 200;" fill="rgb(33, 33, 33)" stroke="none" stroke-width="1px">0.6</text><text x="0" y="128.72727272727272" dx="0em" dy="0.3em" style="text-anchor: end; visibility: inherit; font-family: Roboto, sans-serif; font-size: 12px; font-weight: 200;" fill="rgb(33, 33, 33)" stroke="none" stroke-width="1px">0.8</text><text x="0" y="112.63636363636361" dx="0em" dy="0.3em" style="text-anchor: end; visibility: hidden; font-family: Roboto, sans-serif; font-size: 12px; font-weight: 200;" fill="rgb(33, 33, 33)" stroke="none" stroke-width="1px">1</text><text x="0" y="96.54545454545453" dx="0em" dy="0.3em" style="text-anchor: end; visibility: inherit; font-family: Roboto, sans-serif; font-size: 12px; font-weight: 200;" fill="rgb(33, 33, 33)" stroke="none" stroke-width="1px">1.2</text><text x="0" y="80.45454545454544" dx="0em" dy="0.3em" style="text-anchor: end; visibility: hidden; font-family: Roboto, sans-serif; font-size: 12px; font-weight: 200;" fill="rgb(33, 33, 33)" stroke="none" stroke-width="1px">1.4</text><text x="0" y="64.36363636363635" dx="0em" dy="0.3em" style="text-anchor: end; visibility: inherit; font-family: Roboto, sans-serif; font-size: 12px; font-weight: 200;" fill="rgb(33, 33, 33)" stroke="none" stroke-width="1px">1.6</text><text x="0" y="48.27272727272725" dx="0em" dy="0.3em" style="text-anchor: end; visibility: hidden; font-family: Roboto, sans-serif; font-size: 12px; font-weight: 200;" fill="rgb(33, 33, 33)" stroke="none" stroke-width="1px">1.8</text><text x="0" y="32.18181818181815" dx="0em" dy="0.3em" style="text-anchor: end; visibility: inherit; font-family: Roboto, sans-serif; font-size: 12px; font-weight: 200;" fill="rgb(33, 33, 33)" stroke="none" stroke-width="1px">2</text><text x="0" y="16.090909090909076" dx="0em" dy="0.3em" style="text-anchor: end; visibility: hidden; font-family: Roboto, sans-serif; font-size: 12px; font-weight: 200;" fill="rgb(33, 33, 33)" stroke="none" stroke-width="1px">2.2</text><text x="0" y="0" dx="0em" dy="0.3em" style="text-anchor: end; visibility: hidden; font-family: Roboto, sans-serif; font-size: 12px; font-weight: 200;" fill="rgb(33, 33, 33)" stroke="none" stroke-width="1px">2.4</text></g><line x1="40" y1="0" x2="40" y2="177" fill="rgb(0, 0, 0)" stroke="rgb(204, 204, 204)" stroke-width="1px"></line></g></g><g transform="translate(40, 0)" clip-path="url(#clip_0)"><clipPath id="clip_0"><rect width="290" height="177"></rect></clipPath><g><g><g><line x1="0" y1="0" x2="0" y2="177" fill="rgb(0, 0, 0)" stroke="rgb(66, 66, 66)" stroke-width="1px" opacity="0.25"></line><line x1="24.166666666666664" y1="0" x2="24.166666666666664" y2="177" fill="rgb(0, 0, 0)" stroke="rgb(66, 66, 66)" stroke-width="1px" opacity="0.25"></line><line x1="48.33333333333333" y1="0" x2="48.33333333333333" y2="177" fill="rgb(0, 0, 0)" stroke="rgb(66, 66, 66)" stroke-width="1px" opacity="0.25"></line><line x1="72.5" y1="0" x2="72.5" y2="177" fill="rgb(0, 0, 0)" stroke="rgb(66, 66, 66)" stroke-width="1px" opacity="0.25"></line><line x1="96.66666666666666" y1="0" x2="96.66666666666666" y2="177" fill="rgb(0, 0, 0)" stroke="rgb(66, 66, 66)" stroke-width="1px" opacity="0.25"></line><line x1="120.83333333333334" y1="0" x2="120.83333333333334" y2="177" fill="rgb(0, 0, 0)" stroke="rgb(66, 66, 66)" stroke-width="1px" opacity="0.25"></line><line x1="145" y1="0" x2="145" y2="177" fill="rgb(0, 0, 0)" stroke="rgb(66, 66, 66)" stroke-width="1px" opacity="0.25"></line><line x1="169.16666666666669" y1="0" x2="169.16666666666669" y2="177" fill="rgb(0, 0, 0)" stroke="rgb(66, 66, 66)" stroke-width="1px" opacity="0.25"></line><line x1="193.33333333333331" y1="0" x2="193.33333333333331" y2="177" fill="rgb(0, 0, 0)" stroke="rgb(66, 66, 66)" stroke-width="1px" opacity="0.25"></line><line x1="217.5" y1="0" x2="217.5" y2="177" fill="rgb(0, 0, 0)" stroke="rgb(66, 66, 66)" stroke-width="1px" opacity="0.25"></line><line x1="241.66666666666669" y1="0" x2="241.66666666666669" y2="177" fill="rgb(0, 0, 0)" stroke="rgb(66, 66, 66)" stroke-width="1px" opacity="0.25"></line><line x1="265.8333333333333" y1="0" x2="265.8333333333333" y2="177" fill="rgb(0, 0, 0)" stroke="rgb(66, 66, 66)" stroke-width="1px" opacity="0.25"></line><line x1="290" y1="0" x2="290" y2="177" fill="rgb(0, 0, 0)" stroke="rgb(66, 66, 66)" stroke-width="1px" opacity="0.25"></line></g><g><line x1="0" y1="177" x2="290" y2="177" fill="rgb(0, 0, 0)" stroke="rgb(66, 66, 66)" stroke-width="1px" opacity="0.25"></line><line x1="0" y1="160.9090909090909" x2="290" y2="160.9090909090909" fill="rgb(0, 0, 0)" stroke="rgb(66, 66, 66)" stroke-width="1px" opacity="0.25"></line><line x1="0" y1="144.8181818181818" x2="290" y2="144.8181818181818" fill="rgb(0, 0, 0)" stroke="rgb(66, 66, 66)" stroke-width="1px" opacity="0.25"></line><line x1="0" y1="128.72727272727272" x2="290" y2="128.72727272727272" fill="rgb(0, 0, 0)" stroke="rgb(66, 66, 66)" stroke-width="1px" opacity="0.25"></line><line x1="0" y1="112.63636363636361" x2="290" y2="112.63636363636361" fill="rgb(0, 0, 0)" stroke="rgb(66, 66, 66)" stroke-width="1px" opacity="0.25"></line><line x1="0" y1="96.54545454545453" x2="290" y2="96.54545454545453" fill="rgb(0, 0, 0)" stroke="rgb(66, 66, 66)" stroke-width="1px" opacity="0.25"></line><line x1="0" y1="80.45454545454544" x2="290" y2="80.45454545454544" fill="rgb(0, 0, 0)" stroke="rgb(66, 66, 66)" stroke-width="1px" opacity="0.25"></line><line x1="0" y1="64.36363636363635" x2="290" y2="64.36363636363635" fill="rgb(0, 0, 0)" stroke="rgb(66, 66, 66)" stroke-width="1px" opacity="0.25"></line><line x1="0" y1="48.27272727272725" x2="290" y2="48.27272727272725" fill="rgb(0, 0, 0)" stroke="rgb(66, 66, 66)" stroke-width="1px" opacity="0.25"></line><line x1="0" y1="32.18181818181815" x2="290" y2="32.18181818181815" fill="rgb(0, 0, 0)" stroke="rgb(66, 66, 66)" stroke-width="1px" opacity="0.25"></line><line x1="0" y1="16.090909090909076" x2="290" y2="16.090909090909076" fill="rgb(0, 0, 0)" stroke="rgb(66, 66, 66)" stroke-width="1px" opacity="0.25"></line><line x1="0" y1="0" x2="290" y2="0" fill="rgb(0, 0, 0)" stroke="rgb(66, 66, 66)" stroke-width="1px" opacity="0.25"></line></g></g></g><g><g><line x1="0" y1="193.09090909090907" x2="290" y2="193.09090909090907" fill="rgb(0, 0, 0)" stroke="rgb(153, 153, 153)" stroke-width="1.5px"></line></g></g><g><g><line x1="24.166666666666664" y1="0" x2="24.166666666666664" y2="177" fill="rgb(0, 0, 0)" stroke="rgb(153, 153, 153)" stroke-width="1.5px"></line></g></g><g><g><g><g><g><path stroke="rgb(51, 187, 238)" stroke-width="2px" d="M26.583333333333332,16.38853096961973L29,29.52221514961934L31.416666666666668,51.19803165305743L33.833333333333336,74.32370892438018L36.25,91.06258502873504L38.666666666666664,102.45897788351232L41.083333333333336,110.36831987987863L43.5,116.15212494134903L45.916666666666664,120.4904666759751L48.33333333333333,123.86306897618555L50.75,126.54627528515728L53.166666666666664,128.75660082968798L55.583333333333336,130.6458604281599L58,132.2621573859995L60.41666666666667,133.59066412665626L62.833333333333336,134.97648626024073L65.25,136.22098605199292L67.66666666666667,137.25069218873978L70.08333333333333,138.27063475955617L72.5,139.2036115798083L74.91666666666667,140.16342861544L77.33333333333333,140.9912313060327L79.75,141.77113689617678L82.16666666666667,142.50333720445633L84.58333333333334,143.28578439083964L87,143.9006636576219L89.41666666666667,144.5222901430997L91.83333333333333,145.10482400113887L94.25,145.69948079369286L96.66666666666666,146.1387693285942L99.08333333333333,146.67626897855237L101.5,147.15297172828153L103.91666666666667,147.4658805890517L106.33333333333333,147.91649121587926L108.75,148.3236980925907L111.16666666666667,148.67742594805628L113.58333333333333,149.07095136425713L116,149.47780337658793L118.41666666666667,149.7665718685497L120.83333333333334,150.03807668794286L123.25,150.3548506931825L125.66666666666667,150.5473933924328L128.08333333333334,150.87309175729752L130.5,150.94545052268288L132.91666666666666,151.35119478269056L135.33333333333334,151.5546663457697L137.75,151.79874110763723L140.16666666666666,151.9034980318763L142.58333333333331,152.16930104385722L145,152.38104957884008L147.41666666666666,152.5350127653642L149.83333333333334,152.70016856627032L152.25,152.7287303534421L154.66666666666666,152.94987320358103L157.08333333333331,153.19010440056974L159.5,153.32052425362846L161.91666666666666,153.29057178172198L164.33333333333334,153.59360917860812L166.75,153.70049768686295L169.16666666666669,153.8205089840022L171.58333333333334,153.90353765812787L174,154.00984351743352L176.41666666666666,154.14889520677653L178.83333333333334,154.255812487819L181.25,154.41610808535054L183.66666666666666,154.55533480915156L186.08333333333334,154.53759638558734L188.5,154.50325846130198L190.91666666666666,154.69915798577395L193.33333333333331,154.85721889680082L195.75,154.97743160345337L198.16666666666666,155.1591701209545L200.58333333333334,155.16483356464994L203,155.08905323527077L205.41666666666669,155.27333574674347L207.83333333333334,155.3291645456444L210.25,155.50218730623072L212.66666666666666,155.63900191133672L215.08333333333334,155.3832813636823L217.5,155.74603907899424L219.91666666666666,155.48014015772125L222.33333333333334,155.8230638314377L224.75,155.80907546119258L227.16666666666666,156.10497001355344L229.58333333333331,156.07840313965625L232,156.14900916272944L234.41666666666666,156.0889843323014L236.83333333333334,156.04851300878957L239.25,156.41359172896907L241.66666666666669,156.35861892049962L244.08333333333334,156.48041173273867L246.5,156.53402023152873L248.91666666666666,156.60591623457995L251.33333333333334,156.70745300433853L253.75,156.69228494980118L256.1666666666667,156.90582938627765L258.58333333333337,156.93145874684507L261,156.9226974330165L263.4166666666667,156.87002644755623L265.8333333333333,157.06516828862104" style="fill: none;" fill="none"></path></g><g><path stroke="rgb(204, 51, 17)" stroke-width="2px" d="M26.583333333333332,11.883652340282092L29,22.359574946490177L31.416666666666668,39.797744881023036L33.833333333333336,63.34142361987719L36.25,83.52685767954046L38.666666666666664,97.51370296695013L41.083333333333336,107.11925833875482L43.5,113.95022023266012L45.916666666666664,118.99212855642492L48.33333333333333,122.86675365946509L50.75,125.9610607624054L53.166666666666664,128.46479201316833L55.583333333333336,130.57776003534144L58,132.3987753770568L60.41666666666667,134.0036111744967L62.833333333333336,135.43235271627253L65.25,136.74042598225853L67.66666666666667,137.9444040981206L70.08333333333333,139.056501112201L72.5,140.1032167618925L74.91666666666667,141.09014255892146L77.33333333333333,141.9924715648998L79.75,142.85741033337334L82.16666666666667,143.67086499387568L84.58333333333334,144.43467220934954L87,145.13579311154106L89.41666666666667,145.81711833585393L91.83333333333333,146.4578115885908L94.25,147.05840516632253L96.66666666666666,147.6266389489174L99.08333333333333,148.17076113549143L101.5,148.66384519230235L103.91666666666667,149.14905030077153L106.33333333333333,149.5945585532622L108.75,150.02236674590543L111.16666666666667,150.41459738666362L113.58333333333333,150.81604970585215L116,151.17948358167303L118.41666666666667,151.5072056325999L120.83333333333334,151.83763712102717L123.25,152.15342326055872L125.66666666666667,152.45633837309748L128.08333333333334,152.72696082700384L130.5,153.0208556706255L132.91666666666666,153.26317529244855L135.33333333333334,153.515934640711L137.75,153.7372549230402L140.16666666666666,153.97759401798248L142.58333333333331,154.19919243725863L145,154.40449107235128L147.41666666666666,154.58551506562665L149.83333333333334,154.7849176769907L152.25,154.97038706595248L154.66666666666666,155.148315586827L157.08333333333331,155.31890704685992L159.5,155.48817975412715L161.91666666666666,155.6456100615588L164.33333333333334,155.80566109039566L166.75,155.9600294936787L169.16666666666669,156.1097223189744L171.58333333333334,156.2402788427743L174,156.38779452714053L176.41666666666666,156.51923821189186L178.83333333333334,156.64789333397692L181.25,156.77592984112826L183.66666666666666,156.90365464308044L186.08333333333334,157.01996384154666L188.5,157.1375030766834L190.91666666666666,157.25430860573596L193.33333333333331,157.36233603683385L195.75,157.48438780416143L198.16666666666666,157.58718817884272L200.58333333333334,157.68577334013852L203,157.7790523198518L205.41666666666669,157.8877079568126L207.83333333333334,157.99570181965828L210.25,158.07991737127304L212.66666666666666,158.17632778937167L215.08333333333334,158.28656353191897L217.5,158.3572942370718L219.91666666666666,158.44764798337764L222.33333333333334,158.52692900191653L224.75,158.62006651542404L227.16666666666666,158.71883390437472L229.58333333333331,158.78217959403992L232,158.86071491783315L234.41666666666666,158.953751726584L236.83333333333334,159.04400476813316L239.25,159.0923430513252L241.66666666666669,159.16791717572644L244.08333333333334,159.26232308962128L246.5,159.34190382469785L248.91666666666666,159.40911465883255L251.33333333333334,159.47131183472547L253.75,159.5607088858431L256.1666666666667,159.6321373310956L258.58333333333337,159.69198712706566L261,159.74934567917478L263.4166666666667,159.83824879743835L265.8333333333333,159.90522225607526" style="fill: none;" fill="none"></path></g><g><path stroke="rgb(0, 119, 187)" stroke-width="2px" d="M26.583333333333332,16.35024398023429L29,29.49543727527963L31.416666666666668,51.02787897803565L33.833333333333336,74.11093415997243L36.25,90.79355946454132L38.666666666666664,102.21269241246307L41.083333333333336,109.97118827429684L43.5,115.799619929357L45.916666666666664,119.90736215764825L48.33333333333333,123.27903893319042L50.75,125.88488480719653L53.166666666666664,128.02874041687357L55.583333333333336,129.98934693769974L58,131.74183509024706L60.41666666666667,133.02556178244677L62.833333333333336,134.52108496427536L65.25,135.80975578048012L67.66666666666667,136.59072596376592L70.08333333333333,137.77877834168345L72.5,138.77331933650103L74.91666666666667,139.65748312256554L77.33333333333333,140.5747547962449L79.75,141.33474002643064L82.16666666666667,142.0240496993065L84.58333333333334,142.67658295414665L87,143.32717884128743L89.41666666666667,144.0267699902708L91.83333333333333,144.64810395240784L94.25,145.28343587571925L96.66666666666666,145.6308145360513L99.08333333333333,146.1213138374415L101.5,146.69169598817825L103.91666666666667,146.91099737990987L106.33333333333333,147.57643522999504L108.75,148.01837565682152L111.16666666666667,148.23511147499084L113.58333333333333,148.5665883747014L116,148.9890352379192L118.41666666666667,149.35149563442576L120.83333333333334,149.52385901862925L123.25,149.74835389852524L125.66666666666667,150.10634971748698L128.08333333333334,150.14989733154124L130.5,150.3944468444044L132.91666666666666,150.77192663604563L135.33333333333334,151.05348754470998L137.75,151.2708323868838L140.16666666666666,151.29780687527224L142.58333333333331,151.49880877408114L145,151.8716657378457L147.41666666666666,151.87545415488154L149.83333333333334,152.1217875805768L152.25,152.27993720769882L154.66666666666666,152.4736212275245L157.08333333333331,152.55738360773432L159.5,152.79053909670222L161.91666666666666,152.72369511560962L164.33333333333334,153.05612871050835L166.75,153.18628721074626L169.16666666666669,153.20666313984177L171.58333333333334,153.2779716984792L174,153.58014830946922L176.41666666666666,153.5823254503987L178.83333333333334,153.66224426572973L181.25,153.7782777249813L183.66666666666666,153.93443483656102L186.08333333333334,154.0190675935962L188.5,153.8231416940689L190.91666666666666,154.37137119607493L193.33333333333331,154.35772570154884L195.75,154.5582312697714L198.16666666666666,154.41616563092578L200.58333333333334,154.62902191823179L203,154.68226116624746L205.41666666666669,154.84437184713104L207.83333333333334,154.85165136239746L210.25,154.99665182557973L212.66666666666666,154.95704368569633L215.08333333333334,154.91338098049164L217.5,155.0692191936753L219.91666666666666,155.0064441642978L222.33333333333334,155.2243452803655L224.75,155.36124860156667L227.16666666666666,155.42888623205098L229.58333333333331,155.5826599977233L232,155.49634643034503L234.41666666666666,155.57001195983455L236.83333333333334,155.54169474135745L239.25,155.69719966975126L241.66666666666669,155.78141522136602L244.08333333333334,155.86016154560176L246.5,156.02778221531347L248.91666666666666,156.17580861665985L251.33333333333334,156.16902063651517L253.75,156.05274740403348L256.1666666666667,156.28778990832242L258.58333333333337,156.3372767052867L261,156.3016488010233L263.4166666666667,156.32460948553953L265.8333333333333,156.31507370417768" style="fill: none;" fill="none"></path></g></g></g></g></g></g><g transform="translate(40, 177)" clip-path="url(#clip_1)"><clipPath id="clip_1"><rect width="290" height="23"></rect></clipPath><g><g><line x1="0" y1="0" x2="0" y2="5" style="visibility: inherit;" fill="rgb(0, 0, 0)" stroke="rgb(204, 204, 204)" stroke-width="1px"></line><line x1="24.166666666666664" y1="0" x2="24.166666666666664" y2="5" style="visibility: inherit;" fill="rgb(0, 0, 0)" stroke="rgb(204, 204, 204)" stroke-width="1px"></line><line x1="48.33333333333333" y1="0" x2="48.33333333333333" y2="5" style="visibility: inherit;" fill="rgb(0, 0, 0)" stroke="rgb(204, 204, 204)" stroke-width="1px"></line><line x1="72.5" y1="0" x2="72.5" y2="5" style="visibility: inherit;" fill="rgb(0, 0, 0)" stroke="rgb(204, 204, 204)" stroke-width="1px"></line><line x1="96.66666666666666" y1="0" x2="96.66666666666666" y2="5" style="visibility: inherit;" fill="rgb(0, 0, 0)" stroke="rgb(204, 204, 204)" stroke-width="1px"></line><line x1="120.83333333333334" y1="0" x2="120.83333333333334" y2="5" style="visibility: inherit;" fill="rgb(0, 0, 0)" stroke="rgb(204, 204, 204)" stroke-width="1px"></line><line x1="145" y1="0" x2="145" y2="5" style="visibility: inherit;" fill="rgb(0, 0, 0)" stroke="rgb(204, 204, 204)" stroke-width="1px"></line><line x1="169.16666666666669" y1="0" x2="169.16666666666669" y2="5" style="visibility: inherit;" fill="rgb(0, 0, 0)" stroke="rgb(204, 204, 204)" stroke-width="1px"></line><line x1="193.33333333333331" y1="0" x2="193.33333333333331" y2="5" style="visibility: inherit;" fill="rgb(0, 0, 0)" stroke="rgb(204, 204, 204)" stroke-width="1px"></line><line x1="217.5" y1="0" x2="217.5" y2="5" style="visibility: inherit;" fill="rgb(0, 0, 0)" stroke="rgb(204, 204, 204)" stroke-width="1px"></line><line x1="241.66666666666669" y1="0" x2="241.66666666666669" y2="5" style="visibility: inherit;" fill="rgb(0, 0, 0)" stroke="rgb(204, 204, 204)" stroke-width="1px"></line><line x1="265.8333333333333" y1="0" x2="265.8333333333333" y2="5" style="visibility: inherit;" fill="rgb(0, 0, 0)" stroke="rgb(204, 204, 204)" stroke-width="1px"></line><line x1="290" y1="0" x2="290" y2="5" style="visibility: inherit;" fill="rgb(0, 0, 0)" stroke="rgb(204, 204, 204)" stroke-width="1px"></line></g><g transform="translate(0, 8)"><text x="0" y="0" dx="0em" dy="0.95em" style="text-anchor: middle; visibility: hidden; font-family: Roboto, sans-serif; font-size: 12px; font-weight: 200;" fill="rgb(33, 33, 33)" stroke="none" stroke-width="1px">-10</text><text x="24.166666666666664" y="0" dx="0em" dy="0.95em" style="text-anchor: middle; visibility: inherit; font-family: Roboto, sans-serif; font-size: 12px; font-weight: 200;" fill="rgb(33, 33, 33)" stroke="none" stroke-width="1px">0</text><text x="48.33333333333333" y="0" dx="0em" dy="0.95em" style="text-anchor: middle; visibility: inherit; font-family: Roboto, sans-serif; font-size: 12px; font-weight: 200;" fill="rgb(33, 33, 33)" stroke="none" stroke-width="1px">10</text><text x="72.5" y="0" dx="0em" dy="0.95em" style="text-anchor: middle; visibility: inherit; font-family: Roboto, sans-serif; font-size: 12px; font-weight: 200;" fill="rgb(33, 33, 33)" stroke="none" stroke-width="1px">20</text><text x="96.66666666666666" y="0" dx="0em" dy="0.95em" style="text-anchor: middle; visibility: inherit; font-family: Roboto, sans-serif; font-size: 12px; font-weight: 200;" fill="rgb(33, 33, 33)" stroke="none" stroke-width="1px">30</text><text x="120.83333333333334" y="0" dx="0em" dy="0.95em" style="text-anchor: middle; visibility: inherit; font-family: Roboto, sans-serif; font-size: 12px; font-weight: 200;" fill="rgb(33, 33, 33)" stroke="none" stroke-width="1px">40</text><text x="145" y="0" dx="0em" dy="0.95em" style="text-anchor: middle; visibility: inherit; font-family: Roboto, sans-serif; font-size: 12px; font-weight: 200;" fill="rgb(33, 33, 33)" stroke="none" stroke-width="1px">50</text><text x="169.16666666666669" y="0" dx="0em" dy="0.95em" style="text-anchor: middle; visibility: inherit; font-family: Roboto, sans-serif; font-size: 12px; font-weight: 200;" fill="rgb(33, 33, 33)" stroke="none" stroke-width="1px">60</text><text x="193.33333333333331" y="0" dx="0em" dy="0.95em" style="text-anchor: middle; visibility: inherit; font-family: Roboto, sans-serif; font-size: 12px; font-weight: 200;" fill="rgb(33, 33, 33)" stroke="none" stroke-width="1px">70</text><text x="217.5" y="0" dx="0em" dy="0.95em" style="text-anchor: middle; visibility: inherit; font-family: Roboto, sans-serif; font-size: 12px; font-weight: 200;" fill="rgb(33, 33, 33)" stroke="none" stroke-width="1px">80</text><text x="241.66666666666669" y="0" dx="0em" dy="0.95em" style="text-anchor: middle; visibility: inherit; font-family: Roboto, sans-serif; font-size: 12px; font-weight: 200;" fill="rgb(33, 33, 33)" stroke="none" stroke-width="1px">90</text><text x="265.8333333333333" y="0" dx="0em" dy="0.95em" style="text-anchor: middle; visibility: inherit; font-family: Roboto, sans-serif; font-size: 12px; font-weight: 200;" fill="rgb(33, 33, 33)" stroke="none" stroke-width="1px">100</text><text x="290" y="0" dx="0em" dy="0.95em" style="text-anchor: middle; visibility: hidden; font-family: Roboto, sans-serif; font-size: 12px; font-weight: 200;" fill="rgb(33, 33, 33)" stroke="none" stroke-width="1px">110</text></g><line x1="0" y1="0" x2="290" y2="0" fill="rgb(0, 0, 0)" stroke="rgb(204, 204, 204)" stroke-width="1px"></line></g></g></g></g></svg>